<?xml version="1.0"?>
<svg xmlns="http://www.w3.org/2000/svg" xmlns:xlink="http://www.w3.org/1999/xlink" xmlns:svgjs="http://svgjs.com/svgjs" version="1.1" width="512" height="512" x="0" y="0" viewBox="0 0 512 512" style="enable-background:new 0 0 512 512" xml:space="preserve" class=""><g><path xmlns="http://www.w3.org/2000/svg" d="m163.515625 171.050781h-92.664063c-21.609374 0-39.191406-17.582031-39.191406-39.191406v-92.667969c0-21.609375 17.582032-39.191406 39.191406-39.191406h92.664063c21.609375 0 39.191406 17.582031 39.191406 39.191406v92.667969c0 21.609375-17.582031 39.191406-39.191406 39.191406zm0 0" fill="#00ab55" data-original="#f03b0e" style="" class=""/><path xmlns="http://www.w3.org/2000/svg" d="m355.578125 171.050781h-92.664063c-21.609374 0-39.191406-17.582031-39.191406-39.191406v-92.667969c0-21.609375 17.582032-39.191406 39.191406-39.191406h92.664063c21.613281 0 39.195313 17.582031 39.195313 39.191406v92.667969c0 21.609375-17.582032 39.191406-39.195313 39.191406zm0 0" fill="#21b6d9" data-original="#67c7f0" style="" class=""/><path xmlns="http://www.w3.org/2000/svg" d="m283.796875 208.5c-7.195313 0-13.980469 1.785156-19.9375 4.9375-7.675781-11.5-20.769531-19.085938-35.597656-19.085938-7.660157 0-14.855469 2.023438-21.082031 5.566407-7.792969-10.582031-20.339844-17.460938-34.457032-17.460938-4.445312 0-8.734375.679688-12.769531 1.945313v-61.613282c0-23.582031-19.1875-42.769531-42.769531-42.769531-23.582032 0-42.769532 19.1875-42.769532 42.769531v141.183594c-2.320312-2.324218-4.925781-4.398437-7.785156-6.175781-9.214844-5.722656-20.019531-7.714844-30.613281-5.675781-11.394531.457031-21.617187 5.429687-28.257813 13.800781-6.976562 8.792969-9.398437 20.582031-6.648437 32.347656l19.710937 84.363281c11.242188 70.386719 66.148438 123.046876 68.488282 125.261719 2.785156 2.636719 6.476562 4.105469 10.3125 4.105469h168.710937c5.050781 0 9.757813-2.542969 12.535157-6.761719 29.878906-45.453125 45.679687-98.226562 45.6875-152.617187l.015624-101.351563s0 0 0-.003906c0-23.582031-19.1875-42.765625-42.773437-42.765625zm0 0" fill="#f7d13d" data-original="#ffdd33" style="" class=""/><path xmlns="http://www.w3.org/2000/svg" d="m283.796875 208.5c-7.195313 0-13.980469 1.785156-19.9375 4.9375-7.675781-11.5-20.769531-19.085938-35.597656-19.085938-7.660157 0-14.855469 2.023438-21.082031 5.566407-2.566407-3.488281-5.660157-6.5625-9.148438-9.132813v321.214844h70.300781c5.050781 0 9.761719-2.539062 12.535157-6.761719 29.878906-45.449219 45.679687-98.226562 45.6875-152.617187l.015624-101.351563c0-23.585937-19.1875-42.769531-42.773437-42.769531zm0 0" fill="#ffbd59" data-original="#ff9d09" style="" class=""/></g></svg>
