<svg id="Capa_1" enable-background="new 0 0 512 512" height="512" viewBox="0 0 512 512" width="512" xmlns="http://www.w3.org/2000/svg"><g><g><path d="m499.581 251.451-36.902-36.491c-1.935-1.925-5.234-.552-5.234 2.176v19.032h-156.532-89.827-191.047c-5.534 0-10.02 4.486-10.02 10.02v21.999c0 5.534 4.486 10.02 10.02 10.02h437.405v18.14c0 3.058 3.7 4.603 5.876 2.447l36.261-35.87c3.199-3.15 3.199-8.314 0-11.473z" fill="#dc72a9"/><path d="m10.02 65.053v-44.586c0-5.534 4.486-10.02 10.02-10.02h471.922c5.534 0 10.02 4.486 10.02 10.02v140.264c0 5.534-4.486 10.02-10.02 10.02h-471.923c-5.534 0-10.02-4.486-10.02-10.02v-43.076" fill="#66e0f7"/><path d="m10.02 395.855v-44.586c0-5.534 4.486-10.02 10.02-10.02h471.922c5.534 0 10.02 4.486 10.02 10.02v140.264c0 5.534-4.486 10.02-10.02 10.02h-471.923c-5.534 0-10.02-4.486-10.02-10.02v-43.076" fill="#ffcd69"/></g><g><circle cx="256" cy="236.112" r="10"/><path d="m469.746 207.857c-3.76-3.743-9.354-4.845-14.255-2.806-4.899 2.036-8.066 6.78-8.066 12.085v9.013h-146.512c-5.533 0-10.02 4.486-10.02 10.02 0 5.533 4.486 10.02 10.02 10.02h156.531c5.533 0 10.02-4.486 10.02-10.02v-2.386l23.668 23.404-23.668 23.414v-2.394c0-5.533-4.486-10.02-10.02-10.02h-437.405v-21.999h191.047c5.534 0 10.02-4.486 10.02-10.02 0-5.533-4.486-10.02-10.02-10.02h-191.047c-11.049.001-20.039 8.99-20.039 20.04v21.999c0 11.05 8.99 20.039 20.039 20.039h427.385v8.119c0 5.45 3.252 10.328 8.285 12.427 1.685.703 3.45 1.044 5.199 1.044 3.476 0 6.886-1.35 9.46-3.9l36.243-35.853c3.472-3.417 5.386-7.983 5.389-12.858.004-4.879-1.907-9.454-5.374-12.878z"/><path d="m491.961.429h-471.922c-11.049 0-20.039 8.989-20.039 20.039v44.586c0 5.533 4.486 10.02 10.02 10.02s10.02-4.486 10.02-10.02v-44.586h76.984v20.207h-34.402c-5.534 0-10.02 4.486-10.02 10.02v14.305c0 5.533 4.486 10.02 10.02 10.02s10.02-4.486 10.02-10.02v-4.286h24.381v16.356c0 5.533 4.486 10.02 10.02 10.02h38.241c5.534 0 10.02-4.486 10.02-10.02 0-5.533-4.486-10.02-10.02-10.02h-28.222v-46.582h83.83v34.512h-10.02c-5.534 0-10.02 4.486-10.02 10.02 0 5.533 4.486 10.02 10.02 10.02h40.078c5.534 0 10.02-4.486 10.02-10.02 0-5.533-4.486-10.02-10.02-10.02h-10.02v-34.512h153.144v56.602c0 5.533 4.486 10.02 10.02 10.02h20.528v28.218h-20.528c-5.533 0-10.02 4.486-10.02 10.02s4.486 10.02 10.02 10.02h71.625c5.533 0 10.02-4.486 10.02-10.02v-29.225c0-5.533-4.486-10.02-10.02-10.02s-10.02 4.486-10.02 10.02v19.205h-21.038v-38.238c0-5.533-4.486-10.02-10.02-10.02h-20.528v-46.582h51.586v30.227c0 5.533 4.486 10.02 10.02 10.02s10.02-4.486 10.02-10.02v-30.227h26.221v140.263h-180.852v-30.277h24.047c5.533 0 10.02-4.486 10.02-10.02v-45.195c0-5.533-4.486-10.02-10.02-10.02h-15.441v-14.022c0-5.533-4.486-10.02-10.02-10.02s-10.02 4.486-10.02 10.02v14.023h-16.621c-5.533 0-10.02 4.486-10.02 10.02 0 5.533 4.486 10.02 10.02 10.02h42.082v25.157h-24.047c-5.533 0-10.02 4.486-10.02 10.02v40.296h-45.756v-55.6c0-5.533-4.486-10.02-10.02-10.02s-10.02 4.486-10.02 10.02v55.6h-60.953v-20.37h23.546c5.534 0 10.02-4.486 10.02-10.02v-16.183c0-5.533-4.486-10.02-10.02-10.02s-10.02 4.486-10.02 10.02v6.163h-39.243c-5.534 0-10.02 4.486-10.02 10.02 0 5.533 4.486 10.02 10.02 10.02h5.678v20.37h-42.499v-43.075c0-5.533-4.486-10.02-10.02-10.02h-29.139c-5.534 0-10.02 4.486-10.02 10.02 0 5.533 4.486 10.02 10.02 10.02h19.121v33.056h-61.704v-43.075c0-5.533-4.486-10.02-10.02-10.02s-10.019 4.483-10.019 10.017v43.075c0 11.05 8.99 20.039 20.039 20.039h471.922c11.05 0 20.039-8.989 20.039-20.039v-140.263c0-11.05-8.989-20.039-20.039-20.039z"/><path d="m491.961 331.23h-471.922c-11.049 0-20.039 8.989-20.039 20.039v44.586c0 5.533 4.486 10.02 10.02 10.02s10.02-4.486 10.02-10.02v-44.586h102.45v63.97c0 5.533 4.486 10.02 10.02 10.02s10.02-4.486 10.02-10.02v-23.387h39.077v23.387c0 5.533 4.486 10.02 10.02 10.02s10.02-4.486 10.02-10.02v-33.406c0-5.533-4.486-10.02-10.02-10.02h-49.096v-20.544h121.829v45.934h-26.218c-5.534 0-10.02 4.486-10.02 10.02s4.486 10.02 10.02 10.02h26.218v37.639c0 5.533 4.486 10.02 10.02 10.02s10.02-4.486 10.02-10.02v-6.578h28.052c5.533 0 10.02-4.486 10.02-10.02s-4.486-10.02-10.02-10.02h-28.052v-76.995h207.565v28.901h-57.613c-5.533 0-10.02 4.486-10.02 10.02s4.486 10.02 10.02 10.02h8.349v23.045c0 5.533 4.486 10.02 10.02 10.02s10.02-4.486 10.02-10.02v-23.045h29.224v91.323h-108.378v-50.309h28.055c5.533 0 10.02-4.486 10.02-10.02s-4.486-10.02-10.02-10.02h-28.055v-10.521-13.46-17.597c0-5.533-4.486-10.02-10.02-10.02s-10.02 4.486-10.02 10.02v7.577h-28.723c-5.533 0-10.02 4.486-10.02 10.02s4.486 10.02 10.02 10.02h28.723v84.309h-139.026v-31.54c0-5.533-4.486-10.02-10.02-10.02h-29.306c-5.534 0-10.02 4.486-10.02 10.02 0 5.533 4.486 10.02 10.02 10.02h19.287v21.521h-109.296v-21.521h34.233c5.534 0 10.02-4.486 10.02-10.02 0-5.533-4.486-10.02-10.02-10.02h-34.233v-54.171c0-5.533-4.486-10.02-10.02-10.02h-29.141c-5.534 0-10.02 4.486-10.02 10.02s4.486 10.02 10.02 10.02h19.121v85.711h-55.107v-43.075c0-5.533-4.486-10.02-10.02-10.02s-10.019 4.487-10.019 10.02v43.075c0 11.05 8.99 20.039 20.039 20.039h471.922c11.05 0 20.039-8.989 20.039-20.039v-140.263c0-11.05-8.989-20.039-20.039-20.039z"/></g></g></svg>