<?xml version="1.0"?>
<svg xmlns="http://www.w3.org/2000/svg" xmlns:xlink="http://www.w3.org/1999/xlink" xmlns:svgjs="http://svgjs.com/svgjs" version="1.1" width="512" height="512" x="0" y="0" viewBox="0 0 58 59" style="enable-background:new 0 0 512 512" xml:space="preserve" class=""><g><g xmlns="http://www.w3.org/2000/svg" id="Page-1" fill="none" fill-rule="evenodd"><g id="067---Click-Button"><path id="Path" d="m36.48 39h-22.48c-7.7319865 0-14-6.2680135-14-14s6.2680135-14 14-14h30c5.6627853-.0004086 10.7681576 3.4105867 12.935267 8.6422952 2.1671094 5.2317086.9691312 11.2537152-3.035267 15.2577048-.9504584.9528538-2.0352947 1.7614275-3.22 2.4z" fill="#00ab55" data-original="#4fba6f" style="" class=""/><path id="Path" d="m6.922 18.934c-.40400278-.0020988-.76705546-.2470908-.92018808-.6209531-.15313261-.3738623-.06625921-.8031424.22018808-1.0880469 2.0604624-2.0668239 4.8595654-3.2274188 7.778-3.225.5522847 0 1 .4477153 1 1s-.4477153 1-1 1c-2.3915202-.0027649-4.68535417.9485301-6.373 2.643-.18732869.1863269-.44078464.2909449-.705.291z" fill="#7ed09e" data-original="#7ed09e" style="" class=""/><path id="Path" d="m48 58v-8.989c-.0002514-.3034776.1373237-.5906495.3739771-.7806334s.5467766-.2622214.8430229-.1963666l5.564 1.274c.3764207.0833952.7672556-.0570338 1.0045206-.3609295s.2786936-.7171219.1064794-1.0620705l-11-22.332c-.1695612-.3383149-.5155717-.551933-.894-.551933s-.7244388.2136181-.894.551933l-11 22.332c-.1722142.3449486-.1307856.7581748.1064794 1.0620705s.6280999.4443247 1.0045206.3609295l5.564-1.274c.2968285-.0672627.6081329.0043148.8457745.1944671.2376417.1901522.375751.4781792.3752255.7825329v8.989c0 .5522847.4477153 1 1 1h6c.5522847 0 1-.4477153 1-1z" fill="#21b6d9" data-original="#9fc9d3" style="" class=""/><g fill="#f0c419"><path id="Path" d="m29 7c-.5522847 0-1-.44771525-1-1v-5c0-.55228475.4477153-1 1-1s1 .44771525 1 1v5c0 .55228475-.4477153 1-1 1z" fill="#f7d13d" data-original="#f0c419" style="" class=""/><path id="Path" d="m24 8c-.2651948-.00005664-.5195073-.10545063-.707-.293l-4-4c-.3789722-.39237889-.3735524-1.01608478.0121814-1.40181858.3857338-.38573379 1.0094397-.39115363 1.4018186-.01218142l4 4c.2859079.28599425.3714219.71603662.216678 1.08965456s-.5192821.61725909-.923678.61734544z" fill="#f7d13d" data-original="#f0c419" style="" class=""/><path id="Path" d="m34 8c-.4043959-.00008635-.7689341-.2437275-.923678-.61734544s-.0692299-.80366031.216678-1.08965456l4-4c.2510745-.25995658.6228779-.3642126.9725073-.27269716.3496295.09151544.6226744.3645604.7141899.71418984.0915154.34962943-.0127406.72143285-.2726972.97250732l-4 4c-.1874927.18754937-.4418052.29294336-.707.293z" fill="#f7d13d" data-original="#f0c419" style="" class=""/></g><path id="Path" d="m19 16h-1c-.5522847 0-1-.4477153-1-1s.4477153-1 1-1h1c.5522847 0 1 .4477153 1 1s-.4477153 1-1 1z" fill="#7ed09e" data-original="#7ed09e" style="" class=""/></g></g></g></svg>
