<svg height="512pt" viewBox="0 0 512 512" width="512pt" xmlns="http://www.w3.org/2000/svg"><path d="m497 432.734375c-8.285156 0-15 6.714844-15 15v16.707031c0 8.078125 6.207031 15.027344 14.273438 15.410156 8.617187.40625 15.726562-6.460937 15.726562-14.984374v-17.132813c0-8.285156-6.714844-15-15-15zm0 0" fill="#ffa300"/><path d="m55.167969 198.699219h216.898437c11.953125 0 19.121094-13.359375 12.480469-23.320313l-29.613281-44.417968v-75.792969c0-30.238281-24.394532-55.167969-55.167969-55.167969h-144.597656c-30.609375 0-55.167969 24.777344-55.167969 55.167969v88.367187c0 30.320313 24.46875 55.164063 55.167969 55.164063zm0 0" fill="#eff6fe"/><path d="m254.933594 130.957031v-75.789062c0-30.238281-24.394532-55.167969-55.167969-55.167969h-82.867187v198.699219h155.167968c11.953125 0 19.121094-13.359375 12.480469-23.320313zm0 0" fill="#d9e4ef"/><path d="m392.566406 156.949219c-52.652344 0-95.332031 42.679687-95.332031 95.332031v3.71875c0 8.285156 6.714844 15 15 15h160.660156c8.285157 0 15-6.714844 15-15v-3.71875c.003907-52.648438-42.679687-95.332031-95.328125-95.332031zm0 0" fill="#00d66a"/><path d="m392.566406 156.949219v114.050781h80.332032c8.28125 0 15-6.714844 15-15v-3.71875c0-52.648438-42.683594-95.332031-95.332032-95.332031zm0 0" fill="#00b85e"/><path d="m454.976562 94.539062c0 34.46875-27.941406 62.410157-62.40625 62.410157-34.46875 0-62.410156-27.941407-62.410156-62.410157 0-34.464843 27.941406-62.40625 62.410156-62.40625 34.464844 0 62.40625 27.941407 62.40625 62.40625zm0 0" fill="#ffcfbe"/><path d="m454.976562 94.542969c0 34.46875-27.945312 62.402343-62.410156 62.402343v-124.8125c34.464844 0 62.410156 27.945313 62.410156 62.410157zm0 0" fill="#f9bcaa"/><path d="m497 241h-365.101562c-8.28125 0-15 6.714844-15 15v176.734375c0 8.28125 6.71875 15 15 15h380.101562v-191.734375c0-8.285156-6.714844-15-15-15zm0 0" fill="#ffcc4b"/><path d="m79.265625 82.21875h96.402344c8.28125 0 15-6.714844 15-15 0-8.28125-6.71875-15-15-15h-96.402344c-8.28125 0-15 6.71875-15 15 0 8.285156 6.714844 15 15 15zm0 0" fill="#3ab4fb"/><path d="m79.265625 146.480469h48.203125c8.28125 0 15-6.714844 15-15 0-8.285157-6.71875-15-15-15h-48.203125c-8.28125 0-15 6.714843-15 15 0 8.285156 6.714844 15 15 15zm0 0" fill="#3ab4fb"/><path d="m190.671875 67.21875c0 8.289062-6.722656 15-15 15h-58.773437v-30h58.773437c8.277344 0 15 6.71875 15 15zm0 0" fill="#1d9cfd"/><path d="m142.46875 131.484375c0 8.28125-6.71875 15-15 15h-10.570312v-30h10.570312c8.28125 0 15 6.710937 15 15zm0 0" fill="#1d9cfd"/><path d="m314.449219 447.734375h197.550781v-191.734375c0-8.285156-6.714844-15-15-15h-182.550781zm0 0" fill="#ffb826"/><path d="m116.894531 372.148438c-64.558593 0-116.894531 52.339843-116.894531 116.898437v4.558594c0 10.160156 8.234375 18.394531 18.394531 18.394531h197.003907c10.160156 0 18.394531-8.234375 18.394531-18.394531v-4.558594c0-64.558594-52.335938-116.898437-116.898438-116.898437zm0 0" fill="#ff7579"/><path d="m116.898438 372.148438v139.851562h98.5c10.160156 0 18.394531-8.234375 18.394531-18.394531v-4.558594c0-64.558594-52.335938-116.894531-116.894531-116.898437zm0 0" fill="#fe4a60"/><path d="m190.507812 298.542969c0 40.652343-32.953124 73.609375-73.609374 73.609375-40.652344 0-73.609376-32.957032-73.609376-73.609375 0-40.652344 32.957032-73.609375 73.609376-73.609375 40.65625 0 73.609374 32.957031 73.609374 73.609375zm0 0" fill="#f4ab97"/><path d="m190.507812 298.546875c0 40.648437-32.960937 73.597656-73.609374 73.597656v-147.210937c40.648437 0 73.609374 32.960937 73.609374 73.613281zm0 0" fill="#e79a85"/></svg>