<?xml version="1.0"?>
<svg xmlns="http://www.w3.org/2000/svg" xmlns:xlink="http://www.w3.org/1999/xlink" xmlns:svgjs="http://svgjs.com/svgjs" version="1.1" width="512" height="512" x="0" y="0" viewBox="0 0 512.0002 512" style="enable-background:new 0 0 512 512" xml:space="preserve"><g><linearGradient xmlns="http://www.w3.org/2000/svg" id="a" gradientUnits="userSpaceOnUse" x1=".0002" x2="512.000127982" y1="215.998297991" y2="215.998297991"><stop stop-opacity="1" stop-color="#00f2fe" offset="0"/><stop stop-opacity="1" stop-color="#00ab55" offset="0"/><stop stop-opacity="1" stop-color="#009655" offset="0.2931"/><stop stop-opacity="1" stop-color="#008c55" offset="0.5538"/><stop stop-opacity="1" stop-color="#008255" offset="0.7956"/><stop stop-opacity="1" stop-color="#007b55" offset="1"/></linearGradient><path xmlns="http://www.w3.org/2000/svg" d="m462 46h-245c-11.042969 0-19.996094 8.953125-19.996094 20 0 11.042969 8.953125 20 19.996094 20h173v50h-137c-11.042969 0-20 8.953125-20 20 0 11.042969 8.957031 20 20 20h209c27.570312 0 50-22.433594 50-50v-30c0-27.570312-22.429688-50-50-50zm10 80c0 5.511719-4.484375 10-10 10h-32v-50h32c5.515625 0 10 4.484375 10 10zm40 199.996094v30c0 27.570312-22.429688 50-50 50-11.046875 0-20-8.953125-20-20s8.953125-20 20-20c5.515625 0 10-4.484375 10-10v-30c0-5.511719-4.484375-10-10-10h-120v50h30c11.046875 0 20 8.953125 20 20s-8.953125 20-20 20h-120c-11.042969 0-20-8.953125-20-20s8.957031-20 20-20h50v-50h-85c-11.042969 0-19.996094-8.953125-19.996094-20 0-11.042969 8.953125-20 19.996094-20h245c27.570312 0 50 22.429687 50 50zm-365.210938 1.453125c6.445313-9.5625 10.214844-21.074219 10.214844-33.449219 0-33.085938-26.917968-60-60-60-33.085937 0-60 26.914062-60 60 0 12.375 3.765625 23.886719 10.214844 33.449219-23.292969 13.667969-40.746094 36.738281-46.511719 64.503906-2.050781 9.867187.417969 20.007813 6.769531 27.8125 6.324219 7.773437 15.695313 12.230469 25.714844 12.230469h127.625c10.015625 0 19.390625-4.457032 25.714844-12.230469 6.351562-7.804687 8.820312-17.945313 6.769531-27.816406-5.769531-27.761719-23.21875-50.832031-46.511719-64.5zm-49.785156-53.453125c11.027344 0 20 8.972656 20 20s-8.972656 20-20 20-20-8.972656-20-20 8.972656-20 20-20zm-54.824218 118c8.230468-22.441406 29.882812-38 54.300781-38h1.046875c24.417968 0 46.070312 15.558594 54.300781 38zm104.609374-298.546875c6.445313-9.5625 10.214844-21.074219 10.214844-33.449219 0-33.085938-26.917968-60-60-60-33.085937 0-60 26.914062-60 60 0 12.375 3.765625 23.886719 10.214844 33.449219-23.292969 13.667969-40.746094 36.738281-46.511719 64.503906-2.050781 9.871094.417969 20.007813 6.769531 27.816406 6.324219 7.769531 15.695313 12.226563 25.714844 12.226563h127.625c10.015625 0 19.390625-4.457032 25.714844-12.226563 6.351562-7.808593 8.820312-17.945312 6.769531-27.816406-5.769531-27.765625-23.21875-50.835937-46.511719-64.503906zm-49.785156-53.449219c11.027344 0 20 8.972656 20 20s-8.972656 20-20 20-20-8.972656-20-20 8.972656-20 20-20zm-54.824218 118c8.230468-22.441406 29.882812-38 54.300781-38h1.046875c24.417968 0 46.070312 15.554688 54.300781 38zm0 0" fill="url(#a)" data-original="url(#a)" style=""/></g></svg>
