<?xml version="1.0"?>
<svg xmlns="http://www.w3.org/2000/svg" xmlns:xlink="http://www.w3.org/1999/xlink" xmlns:svgjs="http://svgjs.com/svgjs" version="1.1" width="512" height="512" x="0" y="0" viewBox="0 0 64 64" style="enable-background:new 0 0 512 512" xml:space="preserve" class=""><g><g xmlns="http://www.w3.org/2000/svg" id="patient_information-information-record-computer-data" data-name="patient information-information-record-computer-data"><path d="m61 7v34h-58v-34a4 4 0 0 1 4-4h50a4 4 0 0 1 4 4z" fill="#f7f458" data-original="#46f8ff" style="" class=""/><path d="m61 7v34h-5v-34a4 4 0 0 0 -4-4h5a4 4 0 0 1 4 4z" fill="#f9c13c" data-original="#00b6bd" style="" class=""/><path d="m9 9h24v26h-24z" fill="#bdfdff" data-original="#bdfdff" style="" class=""/><path d="m61 41v4a4 4 0 0 1 -4 4h-50a4 4 0 0 1 -4-4v-4z" fill="#40c354" data-original="#ff7956" style="" class=""/><path d="m37 31h18v4h-18z" fill="#fffc52" data-original="#fee9ab" style="" class=""/><path d="m46 59v2h-28v-2a2.006 2.006 0 0 1 2-2h24a2.006 2.006 0 0 1 2 2z" fill="#40c354" data-original="#ff7956" style="" class=""/><path d="m61 41v4a4 4 0 0 1 -4 4h-5a4 4 0 0 0 4-4v-4z" fill="#329d1c" data-original="#ff5023" style="" class=""/><path d="m46 59v2h-5v-2a2.006 2.006 0 0 0 -2-2h5a2.006 2.006 0 0 1 2 2z" fill="#329d1c" data-original="#ff5023" style="" class=""/><path d="m27 49h10v8h-10z" fill="#fffc52" data-original="#fee9ab" style="" class=""/><path d="m33 49h4v8h-4z" fill="#ffd422" data-original="#ffd422" style="" class=""/><path d="m29 31v4h-16v-4a6 6 0 0 1 6-6h4a6 6 0 0 1 6 6z" fill="#ff3051" data-original="#ff3051" style="" class=""/><path d="m26 18v3a4 4 0 0 1 -4 4h-2a4 4 0 0 1 -4-4v-3l7-1z" fill="#ffc477" data-original="#ffc477" style="" class=""/><path d="m26 17v1l-3-1-7 1v-1a4 4 0 0 1 4-4h2a4 4 0 0 1 4 4z" fill="#ffcd00" data-original="#ffcd00" style="" class=""/><path d="m29 31v4h-2v-4a6 6 0 0 0 -6-6h2a6 6 0 0 1 6 6z" fill="#cd2a00" data-original="#cd2a00" style="" class=""/><path d="m26 18v3a4 4 0 0 1 -4 4h-2a4 4 0 0 0 4-4v-3.67z" fill="#ffa733" data-original="#ffa733" style="" class=""/><path d="m26 17v1l-2-.67v-.33a4 4 0 0 0 -4-4h2a4 4 0 0 1 4 4z" fill="#ebbf00" data-original="#ebbf00" style="" class=""/><path d="m57 2h-50a5 5 0 0 0 -5 5v38a5 5 0 0 0 5 5h19v6h-6a3.009 3.009 0 0 0 -3 3v2a1 1 0 0 0 1 1h28a1 1 0 0 0 1-1v-2a3.009 3.009 0 0 0 -3-3h-6v-6h19a5 5 0 0 0 5-5v-38a5 5 0 0 0 -5-5zm-13 56a1 1 0 0 1 1 1v1h-26v-1a1 1 0 0 1 1-1zm-16-2v-6h8v6zm32-11a3.009 3.009 0 0 1 -3 3h-50a3.009 3.009 0 0 1 -3-3v-3h56zm0-5h-56v-33a3.009 3.009 0 0 1 3-3h50a3.009 3.009 0 0 1 3 3z" fill="#000000" data-original="#000000" style="" class=""/><path d="m54 44h2v2h-2z" fill="#000000" data-original="#000000" style="" class=""/><path d="m50 44h2v2h-2z" fill="#000000" data-original="#000000" style="" class=""/><path d="m33 8h-24a1 1 0 0 0 -1 1v26a1 1 0 0 0 1 1h24a1 1 0 0 0 1-1v-26a1 1 0 0 0 -1-1zm-5 26h-14v-3a5 5 0 0 1 5-5h4a5 5 0 0 1 5 5zm-5.09-15.98 2.09.7v2.28a3.009 3.009 0 0 1 -3 3h-2a3.009 3.009 0 0 1 -3-3v-2.13zm-5.89-1.18a2.988 2.988 0 0 1 2.98-2.84h2a3 3 0 0 1 2.96 2.6l-1.64-.55a1.032 1.032 0 0 0 -.46-.04zm14.98 17.16h-2v-3a7.019 7.019 0 0 0 -4.43-6.51 4.98 4.98 0 0 0 1.43-3.49v-4a5 5 0 0 0 -5-5h-2a5 5 0 0 0 -5 5v4a4.98 4.98 0 0 0 1.43 3.49 7.019 7.019 0 0 0 -4.43 6.51v3h-2v-24h22z" fill="#000000" data-original="#000000" style="" class=""/><path d="m37 36h18a1 1 0 0 0 1-1v-4a1 1 0 0 0 -1-1h-18a1 1 0 0 0 -1 1v4a1 1 0 0 0 1 1zm1-4h16v2h-16z" fill="#000000" data-original="#000000" style="" class=""/><path d="m36 8h4v2h-4z" fill="#000000" data-original="#000000" style="" class=""/><path d="m42 8h14v2h-14z" fill="#000000" data-original="#000000" style="" class=""/><path d="m36 14h4v2h-4z" fill="#000000" data-original="#000000" style="" class=""/><path d="m42 14h14v2h-14z" fill="#000000" data-original="#000000" style="" class=""/><path d="m36 20h4v2h-4z" fill="#000000" data-original="#000000" style="" class=""/><path d="m42 20h14v2h-14z" fill="#000000" data-original="#000000" style="" class=""/><path d="m36 26h4v2h-4z" fill="#000000" data-original="#000000" style="" class=""/><path d="m42 26h14v2h-14z" fill="#000000" data-original="#000000" style="" class=""/></g></g></svg>
