<?xml version="1.0"?>
<svg xmlns="http://www.w3.org/2000/svg" xmlns:xlink="http://www.w3.org/1999/xlink" xmlns:svgjs="http://svgjs.com/svgjs" version="1.1" width="512" height="512" x="0" y="0" viewBox="0 0 512 512" style="enable-background:new 0 0 512 512" xml:space="preserve" class=""><g><g xmlns="http://www.w3.org/2000/svg"><path d="m479.595 63.999h-447.19c-12.374 0-22.405 10.031-22.405 22.405v179.19c0 12.374 10.031 22.405 22.405 22.405h447.19c12.374 0 22.405-10.031 22.405-22.405v-179.19c0-12.374-10.031-22.405-22.405-22.405z" fill="#00ab55" data-original="#86e99e" style="" class=""/><g><path d="m473.608 322.351-129.462-68.417-5.48 146.325 34.23-28.521 44.029 76.261 58.897-34.004-44.029-76.261z" fill="#21b6d9" data-original="#33d8f8" style="" class=""/></g><g><path d="m479.595 53.999h-178.595c-5.523 0-10 4.477-10 10s4.477 10 10 10h178.595c6.84 0 12.405 5.565 12.405 12.405v179.19c0 6.84-5.565 12.405-12.405 12.405h-68.51l-62.267-32.906c-3.04-1.606-6.694-1.539-9.672.181s-4.864 4.849-4.993 8.286l-.915 24.439h-300.833c-6.84 0-12.405-5.565-12.405-12.405v-179.19c0-6.84 5.565-12.405 12.405-12.405h178.595c5.523 0 10-4.477 10-10s-4.477-10-10-10h-178.595c-17.868 0-32.405 14.537-32.405 32.405v179.19c0 17.868 14.537 32.405 32.405 32.405h300.084l-3.816 101.885c-.147 3.945 2.04 7.608 5.583 9.349 3.544 1.742 7.78 1.235 10.812-1.292l25.106-20.919 38.091 65.977c1.852 3.208 5.213 5.002 8.669 5.001 1.696 0 3.416-.432 4.991-1.341l58.897-34.004c2.297-1.326 3.973-3.51 4.659-6.072.687-2.562.327-5.292-.999-7.588l-38.092-65.977 30.669-11.282c3.705-1.363 6.261-4.778 6.525-8.717s-1.815-7.665-5.305-9.509l-29.349-15.51h30.665c17.868 0 32.405-14.537 32.405-32.405v-179.191c0-17.868-14.537-32.405-32.405-32.405zm-51.255 274.349c-2.769 1.019-4.946 3.208-5.95 5.981s-.732 5.849.743 8.404l39.03 67.602-41.577 24.004-39.029-67.601c-1.475-2.555-4.002-4.328-6.907-4.845-.583-.104-1.17-.155-1.753-.155-2.321 0-4.59.809-6.401 2.317l-16.996 14.162 4.045-108.006 95.558 50.5z" fill="#000000" data-original="#000000" style="" class=""/><path d="m131.148 125.999c-5.523 0-10 4.477-10 10v60.088c0 10.368 4.923 18.77 14.631 24.973 5.116 3.269 10.883 4.931 17.138 4.939h.052c5.37 0 10.418-1.171 15.006-3.482 11.307-5.694 17.534-15.097 17.534-26.476v-60.042c0-5.523-4.477-10-10-10s-10 4.477-10 10v60.042c0 2.633-.776 5.715-6.53 8.613-1.796.904-3.762 1.344-6.01 1.344-.008 0-.017 0-.024 0-2.421-.003-4.514-.589-6.396-1.792-4.516-2.886-5.4-5.162-5.4-8.119v-60.088c-.001-5.523-4.478-10-10.001-10z" fill="#000000" data-original="#000000" style="" class=""/><path d="m77.182 205.999c-7.951 0-15.603-3.205-20.468-8.574-3.709-4.093-10.034-4.404-14.125-.695-4.093 3.708-4.404 10.033-.695 14.125 8.593 9.483 21.785 15.144 35.288 15.144 16.859 0 31.017-10.758 33.664-25.581 1.992-11.154-3.072-25.726-23.256-33.171-9.826-3.624-18.974-7.571-21.782-8.801-2.178-1.75-2.104-4.189-1.958-5.206.203-1.412 1.229-4.863 6.363-6.409 11.26-3.395 21.702 4.838 22.015 5.089 4.227 3.507 10.5 2.948 14.039-1.263 3.554-4.228 3.007-10.536-1.22-14.089-.755-.635-18.745-15.471-40.602-8.888-11.044 3.327-18.857 12.032-20.392 22.718-1.439 10.026 2.907 19.671 11.342 25.171.442.288 12.867 5.866 25.274 10.442 3.507 1.293 11.55 4.945 10.489 10.891-.799 4.472-6.245 9.097-13.976 9.097z" fill="#000000" data-original="#000000" style="" class=""/><path d="m443.927 225.999c5.523 0 10-4.477 10-10v-70h8.073c5.523 0 10-4.477 10-10s-4.477-10-10-10h-36c-5.523 0-10 4.477-10 10s4.477 10 10 10h7.927v70c0 5.523 4.477 10 10 10z" fill="#000000" data-original="#000000" style="" class=""/><path d="m403.886 215.999v-80c0-5.523-4.477-10-10-10s-10 4.477-10 10v80c0 5.523 4.477 10 10 10s10-4.477 10-10z" fill="#000000" data-original="#000000" style="" class=""/><path d="m196.319 135.999v80c0 2.66 1.06 5.21 2.945 7.087 1.875 1.866 4.411 2.913 7.055 2.913h.044c.002 0 21.364-.095 27.252-.095 17.388 0 31.533-14.146 31.533-31.533 0-9.904-4.593-18.751-11.756-24.536 2.888-4.446 4.573-9.742 4.573-15.427 0-15.665-12.744-28.408-28.408-28.408h-23.238c-5.523-.001-10 4.476-10 9.999zm37.296 69.905c-3.184 0-10.878.028-17.296.053v-23.102c1.569-.006 17.296-.018 17.296-.018 6.359 0 11.533 5.174 11.533 11.534 0 6.359-5.173 11.533-11.533 11.533zm-4.058-59.905c4.636 0 8.408 3.772 8.408 8.408s-3.772 8.408-8.408 8.408c-1.725 0-13.238.022-13.238.022v-16.838z" fill="#000000" data-original="#000000" style="" class=""/><path d="m281.955 225.865c5.449.901 10.597-2.786 11.498-8.235l6.754-40.842 11.064 40.607c.03.111.062.221.097.331 1.535 4.954 6.004 8.272 11.132 8.272h.056c5.152-.024 9.618-3.392 11.113-8.379.032-.108.063-.216.091-.325l10.682-40.573 7.179 41.001c.851 4.857 5.072 8.277 9.838 8.277.572 0 1.153-.049 1.736-.151 5.44-.953 9.078-6.135 8.125-11.575l-13.755-78.554c-.007-.042-.015-.083-.022-.124-1.008-5.358-5.472-9.298-10.857-9.582-5.366-.277-10.212 3.156-11.772 8.363-.032.107-.063.216-.091.324l-12.459 47.325-12.921-47.421c-.031-.112-.063-.223-.098-.334-1.611-5.191-6.496-8.588-11.852-8.246-5.384.336-9.811 4.322-10.765 9.693-.007.04-.014.079-.021.119l-12.986 78.53c-.902 5.451 2.785 10.598 8.234 11.499z" fill="#000000" data-original="#000000" style="" class=""/><circle cx="256" cy="64.002" r="10" fill="#000000" data-original="#000000" style="" class=""/></g></g></g></svg>
